#!OML:ASF I:\salsa\salsa 7_09\Patient 1\Session 1\dancerfemale.ASF
:FULLY-SPECIFIED
:DEGREES
1606
root 18.1458 15.4862 1.66934 -1289.08 -431.187 -507.943
lowerback 5.04199 5.7204 7.77263
upperback -7.88378 8.51416 2.54887
thorax -10.582 3.50274 -2.66759
lowerneck -2.13242 -3.82711 -9.19134
upperneck 22.2602 -6.81434 7.79857
head 7.73959 -3.66674 3.58657
rclavicle 6.49529e-014 3.22031e-014
rhumerus 20.2405 8.27063 -85.0733
rradius 55.8013
rwrist -17.4116
rhand 5.68312 40.2944
rfingers 7.12502
rthumb 31.0213 12.897
lclavicle 6.49529e-014 3.22031e-014
lhumerus -42.1637 39.8818 27.4963
lradius 112.886
lwrist -23.1005
lhand -20.4003 43.9018
lfingers 7.12502
lthumb 5.95336 433.798
rfemur -15.2442 -7.71614 38.4094
rtibia 29.6231
rfoot -22.5834 2.13865
rtoes 0.555226
lfemur -50.8602 16.0031 -10.5344
ltibia 66.4513
lfoot -4.65907 9.10726
ltoes -22.9673
1607
root 18.0165 15.4849 1.65991 -1289.62 -431.121 -507.339
lowerback 4.80054 5.71074 7.74066
upperback -7.96297 8.48149 2.75211
thorax -10.5675 3.49375 -2.40768
lowerneck -2.2294 -3.72 -9.3633
upperneck 22.6448 -6.66482 7.7186
head 7.8749 -3.62151 3.60211
rclavicle -1.80894e-014 -2.22639e-014
rhumerus 18.8798 9.23468 -84.8185
rradius 56.2279
rwrist -12.7076
rhand 5.74087 40.9344
rfingers 7.12502
rthumb 31.0764 13.5475
lclavicle -1.80894e-014 -2.22639e-014
lhumerus -41.1587 39.3857 28.1404
lradius 112.962
lwrist -23.1271
lhand -20.6857 44.5811
lfingers 7.12502
lthumb 5.67782 434.485
rfemur -14.3104 -8.2051 38.3903
rtibia 28.867
rfoot -22.7141 2.95426
rtoes 2.44147
lfemur -51.4667 15.6364 -10.6906
ltibia 62.1324
lfoot -3.15892 8.83168
ltoes -23.236
1608
root 17.8804 15.5035 1.6536 -1289.99 -430.921 -506.964
lowerback 4.49904 5.76702 7.7747
upperback -7.99589 8.53264 2.95313
thorax -10.4481 3.5266 -2.1851
lowerneck -2.27348 -3.64005 -9.51507
upperneck 22.855 -6.53608 7.62902
head 7.94394 -3.58327 3.60931
rclavicle -2.95692e-015 -1.2424e-014
rhumerus 17.5978 10.4633 -84.2272
rradius 56.858
rwrist -8.68906
rhand 5.91325 40.9678
rfingers 7.12502
rthumb 31.2407 13.6124
lclavicle -2.95692e-015 -1.2424e-014
lhumerus -40.1628 38.9709 28.9359
lradius 113.159
lwrist -23.1917
lhand -20.9758 44.8521
lfingers 7.12502
lthumb 5.3977 434.763
rfemur -13.158 -8.28581 38.3233
rtibia 27.7984
rfoot -22.67 3.42884
rtoes 6.28328
lfemur -51.6154 15.226 -10.6968
ltibia 57.8384
lfoot -0.179945 8.62086
ltoes -24.9119
1609
root 17.7461 15.5407 1.65253 -1290.12 -430.75 -506.82
lowerback 4.11818 5.91127 7.75997
upperback -8.0309 8.68389 3.09919
thorax -10.2732 3.61315 -1.99598
lowerneck -2.16395 -3.62187 -9.62561
upperneck 22.8909 -6.51132 7.60978
head 7.93735 -3.5866 3.62616
rclavicle 8.74901e-014 3.52843e-014
rhumerus 16.3745 11.1464 -83.807
rradius 57.6658
rwrist -4.61041
rhand 6.8538 40.2849
rfingers 7.12502
rthumb 32.1365 13.1064
lclavicle 8.74901e-014 3.52843e-014
lhumerus -38.8314 38.618 30.1859
lradius 113.387
lwrist -23.246
lhand -21.4571 44.8362
lfingers 7.12502
lthumb 4.93303 434.759
rfemur -11.9389 -8.3897 38.256
rtibia 26.4085
rfoot -22.4354 3.37743
rtoes 3.16499
lfemur -51.5379 15.0125 -10.821
ltibia 53.7956
lfoot 3.15372 8.81983
ltoes -25.429
1610
root 17.6101 15.5718 1.65926 -1290.1 -430.582 -506.885
lowerback 3.77944 6.07318 7.79478
upperback -8.0561 8.8651 3.21014
thorax -10.0989 3.70911 -1.87616
lowerneck -2.12248 -3.60352 -9.77123
upperneck 23.0381 -6.48535 7.57981
head 7.98132 -3.5936 3.64491
rclavicle 1.5207e-014 -4.77083e-015
rhumerus 15.0512 11.4427 -83.7132
rradius 58.5836
rwrist -0.827988
rhand 8.43915 39.644
rfingers 7.12502
rthumb 33.6445 12.782
lclavicle 1.5207e-014 -4.77083e-015
lhumerus -37.488 38.379 31.6109
lradius 113.731
lwrist -23.2987
lhand -21.8761 44.8366
lfingers 7.12502
lthumb 4.52843 434.768
rfemur -10.3706 -7.55228 37.9857
rtibia 24.7049
rfoot -22.005 3.07033
rtoes 5.94878
lfemur -51.33 15.1019 -11.1296
ltibia 50.2386
lfoot 6.12447 9.49183
ltoes -24.7038
1611
root 17.4709 15.6137 1.67303 -1289.95 -430.414 -507.245
lowerback 3.51952 6.15781 7.94617
upperback -7.96571 8.95361 3.27901
thorax -9.82545 3.75835 -1.85581
lowerneck -2.3327 -3.54467 -9.85046
upperneck 23.2886 -6.363 7.43792
head 8.09125 -3.55213 3.61864
rclavicle 9.22858e-014 7.0171e-014
rhumerus 13.7562 12.3866 -83.5245
rradius 59.487
rwrist 1.12542
rhand 9.69501 38.8944
rfingers 7.12502
rthumb 34.837 12.3004
lclavicle 9.22858e-014 7.0171e-014
lhumerus -36.3216 38.4038 32.9633
lradius 114.161
lwrist -23.3243
lhand -22.1932 45.0358
lfingers 7.12502
lthumb 4.22221 434.974
rfemur -8.62865 -6.79155 37.6625
rtibia 22.8821
rfoot -21.5368 2.52029
rtoes 6.95016
lfemur -50.7311 15.0989 -11.4125
ltibia 47.2775
lfoot 8.93413 11.2774
ltoes -19.8335
1612
root 17.3268 15.6551 1.69299 -1289.73 -430.301 -507.806
lowerback 3.47071 6.2151 8.10474
upperback -7.9455 9.03316 3.283
thorax -9.74609 3.78845 -1.93465
lowerneck -2.46684 -3.49024 -9.9212
upperneck 23.6482 -6.26643 7.27341
head 8.22641 -3.53188 3.58318
rclavicle -6.11884e-014 -9.49197e-015
rhumerus 12.2211 13.686 -83.2483
rradius 60.346
rwrist 1.79529
rhand 10.5361 38.0228
rfingers 7.12502
rthumb 35.6347 11.6174
lclavicle -6.11884e-014 -9.49197e-015
lhumerus -35.078 38.555 34.4526
lradius 114.564
lwrist -23.3721
lhand -22.4661 45.1574
lfingers 7.12502
lthumb 3.95867 435.1
rfemur -6.77486 -6.33091 37.2901
rtibia 21.0341
rfoot -21.1503 1.89942
rtoes 4.63721
lfemur -49.7807 14.5829 -11.4657
ltibia 44.9144
lfoot 10.6144 15.1564
ltoes -14.9476
1613
root 17.1751 15.6886 1.71803 -1289.44 -430.253 -508.403
lowerback 3.32073 6.22335 8.29692
upperback -7.93478 9.03327 3.24939
thorax -9.61193 3.7785 -2.0517
lowerneck -2.64112 -3.40848 -10.0952
upperneck 24.058 -6.15533 7.25671
head 8.39244 -3.50293 3.61712
rclavicle 1.09953e-014 -2.38045e-014
rhumerus 10.6024 15.0513 -82.9989
rradius 61.2603
rwrist 2.15345
rhand 10.9199 37.6027
rfingers 7.12502
rthumb 35.9983 11.2857
lclavicle 1.09953e-014 -2.38045e-014
lhumerus -33.6678 39.1605 36.1194
lradius 115.026
lwrist -23.6387
lhand -22.3261 45.047
lfingers 7.12502
lthumb 4.09388 434.987
rfemur -5.22235 -6.15835 36.9383
rtibia 19.6196
rfoot -20.9646 1.06836
rtoes 0.528379
lfemur -48.2791 13.4665 -11.2079
ltibia 43.1635
lfoot 10.7868 19.4185
ltoes -6.2686
1614
root 17.0143 15.7128 1.74595 -1288.82 -430.318 -509.207
lowerback 2.97623 6.23926 8.37148
upperback -8.0083 9.00848 3.1598
thorax -9.46541 3.76169 -2.1445
lowerneck -2.64765 -3.32378 -10.2044
upperneck 24.376 -6.0705 7.2867
head 8.49813 -3.4815 3.65636
rclavicle 4.47514e-014 5.31749e-015
rhumerus 8.76977 16.3662 -82.7557
rradius 62.3004
rwrist 2.40464
rhand 10.9982 37.5958
rfingers 7.12502
rthumb 36.0725 11.2971
lclavicle 4.47514e-014 5.31749e-015
lhumerus -32.34 39.5679 37.8724
lradius 115.588
lwrist -23.8459
lhand -22.1411 45.1105
lfingers 7.12502
lthumb 4.27255 435.047
rfemur -3.88059 -4.73246 36.2824
rtibia 18.7686
rfoot -21.0401 0.326669
rtoes 5.89202
lfemur -46.7384 11.8286 -10.9503
ltibia 41.8649
lfoot 10.8975 23.3897
ltoes 0.0258058
1615
root 16.8434 15.7199 1.77345 -1287.63 -430.462 -510.496
lowerback 2.40441 6.25734 8.33489
upperback -8.11978 8.94288 2.93381
thorax -9.22173 3.73339 -2.29342
lowerneck -2.54284 -3.22711 -10.1253
upperneck 24.5656 -5.96451 7.21245
head 8.52843 -3.44302 3.63021
rclavicle -5.34482e-014 -1.64494e-014
rhumerus 6.90653 17.6361 -82.6433
rradius 63.3428
rwrist 2.67603
rhand 11.087 37.6939
rfingers 7.12502
rthumb 36.1566 11.416
lclavicle -5.34482e-014 -1.64494e-014
lhumerus -31.0838 39.6862 39.5235
lradius 116.214
lwrist -23.924
lhand -22.3028 45.3853
lfingers 7.12502
lthumb 4.11637 435.325
rfemur -2.92171 -3.33423 35.5877
rtibia 18.4024
rfoot -21.3047 -0.995659
rtoes 8.29029
lfemur -45.1137 10.1249 -10.953
ltibia 40.983
lfoot 10.305 25.6457
ltoes 7.0394
